<?xml version="1.0" encoding="UTF-8"?>
<svg version="1.1" xmlns="http://www.w3.org/2000/svg" width="778" height="778">
<path d="M0 0 C256.74 0 513.48 0 778 0 C778 256.74 778 513.48 778 778 C521.26 778 264.52 778 0 778 C0 521.26 0 264.52 0 0 Z " fill="#E2E2E0" transform="translate(0,0)"/>
<path d="M0 0 C3.24915648 -0.00218815 6.49797346 -0.02041084 9.74707031 -0.03930664 C21.32157308 -0.07135505 32.45079756 0.37181316 43.88769531 2.18530273 C45.07621094 2.35167236 46.26472656 2.51804199 47.48925781 2.68945312 C111.81413642 11.75381273 172.08861014 41.26718655 211.96459961 93.47607422 C231.50397488 119.46062287 246.88769531 153.36440348 246.88769531 186.18530273 C205.63769531 186.18530273 164.38769531 186.18530273 121.88769531 186.18530273 C119.90769531 181.23530273 117.92769531 176.28530273 115.88769531 171.18530273 C113.2994541 167.26119508 110.85207646 163.76843517 107.88769531 160.18530273 C107.25992187 159.39510742 106.63214844 158.60491211 105.98535156 157.79077148 C101.0183143 151.82829527 95.33372552 147.46147207 88.88769531 143.18530273 C88.09621094 142.6503418 87.30472656 142.11538086 86.48925781 141.56420898 C79.39978996 137.03024699 71.75609271 134.04921855 63.88769531 131.18530273 C62.69789063 130.74057617 61.50808594 130.29584961 60.28222656 129.83764648 C30.47606892 119.56724232 -5.31391295 118.77951071 -36.11230469 125.18530273 C-36.8523877 125.32983887 -37.5924707 125.474375 -38.35498047 125.62329102 C-64.72131885 130.83651711 -91.65417613 142.91673333 -107.2421875 165.84741211 C-109.77613012 169.84124865 -111.97482613 173.9677276 -114.11230469 178.18530273 C-114.59570312 179.11600586 -115.07910156 180.04670898 -115.57714844 181.00561523 C-126.11496705 203.49056559 -126.65936581 233.99433216 -118.86230469 257.31030273 C-109.67609151 281.5114082 -92.27915852 297.58203525 -69.13183594 308.28930664 C-57.10971786 313.62310419 -44.61446948 316.73256661 -31.67480469 318.81030273 C-30.94374512 318.93356934 -30.21268555 319.05683594 -29.45947266 319.18383789 C-19.67322884 320.65819802 -10.11323857 320.70906779 -0.11230469 321.18530273 C-0.11230469 288.84530273 -0.11230469 256.50530273 -0.11230469 223.18530273 C28.80635862 223.18530273 28.80635862 223.18530273 38.01269531 224.43530273 C39.60706421 224.63663818 39.60706421 224.63663818 41.23364258 224.84204102 C106.65337009 233.37441589 169.82062756 259.69280156 211.38867188 312.78198242 C224.95994133 330.57935402 236.11305082 350.31649784 242.78222656 371.72045898 C243.58894112 374.24892477 244.4476072 376.68400757 245.40332031 379.15405273 C247.68446249 385.16862824 249.03557881 391.39047991 250.35400391 397.67260742 C250.70608536 399.33025715 251.0733038 400.98477345 251.45654297 402.63549805 C254.99137446 418.14798162 255.2892417 433.53599873 255.32519531 449.37280273 C255.33127808 450.3841629 255.33736084 451.39552307 255.34362793 452.43753052 C255.55518067 506.28042787 237.5445778 558.21985578 200.87207031 598.01342773 C199.1265123 599.92392037 197.4691208 601.87534488 195.82519531 603.87280273 C192.52782918 607.73466362 188.76527244 610.92130633 184.88769531 614.18530273 C183.86993093 615.06454278 182.8530657 615.94482431 181.83691406 616.82592773 C165.54418147 630.89096767 147.3667952 642.07077697 127.88769531 651.18530273 C127.27313477 651.47856445 126.65857422 651.77182617 126.02539062 652.07397461 C113.72075024 657.91104121 100.88048161 662.1566521 87.88769531 666.18530273 C86.6840332 666.56066162 86.6840332 666.56066162 85.45605469 666.94360352 C63.51998096 673.6324804 39.44830545 677.23711656 16.55175781 677.45874023 C14.78103912 677.47753235 14.78103912 677.47753235 12.97454834 677.4967041 C-13.12290842 677.71985794 -38.50705796 677.56028841 -64.11230469 672.18530273 C-65.80516602 671.83242187 -65.80516602 671.83242187 -67.53222656 671.47241211 C-74.47412574 669.97335833 -81.30293517 668.19916663 -88.11230469 666.18530273 C-89.41965576 665.80317627 -89.41965576 665.80317627 -90.75341797 665.41333008 C-129.21986564 653.94743884 -164.18141454 633.95318733 -193.11230469 606.18530273 C-193.67449707 605.6503418 -194.23668945 605.11538086 -194.81591797 604.56420898 C-203.4106887 596.34663079 -211.08574847 587.77803139 -218.11230469 578.18530273 C-218.8921875 577.12698242 -219.67207031 576.06866211 -220.47558594 574.97827148 C-226.36096339 566.73467716 -231.32663168 558.0994374 -236.11230469 549.18530273 C-237.02302734 547.5243457 -237.02302734 547.5243457 -237.95214844 545.82983398 C-247.61011238 527.49941262 -254.54190332 506.74851367 -257.11230469 486.18530273 C-214.21230469 486.18530273 -171.31230469 486.18530273 -127.11230469 486.18530273 C-124.47230469 491.46530273 -121.83230469 496.74530273 -119.11230469 502.18530273 C-116.84978467 505.74667684 -114.72159987 508.92639049 -112.11230469 512.18530273 C-111.40847656 513.06444336 -110.70464844 513.94358398 -109.97949219 514.84936523 C-99.32288838 527.33482515 -85.97571344 535.55702586 -71.11230469 542.18530273 C-69.91089844 542.72928711 -68.70949219 543.27327148 -67.47167969 543.83374023 C-60.50055473 546.8062762 -53.50508342 549.04930946 -46.17480469 550.93530273 C-45.41329102 551.13406006 -44.65177734 551.33281738 -43.8671875 551.53759766 C-30.19617482 554.85855482 -16.48823408 555.53618221 -2.48681641 555.50097656 C0.12152219 555.49782229 2.72871477 555.52136807 5.33691406 555.54663086 C20.78430793 555.60560423 36.36435978 554.21563652 51.13769531 549.43530273 C51.9564917 549.1778125 52.77528809 548.92032227 53.61889648 548.6550293 C80.29195047 540.02726346 103.33905997 524.76890636 116.63769531 499.37280273 C128.94922899 473.46430843 130.85070636 444.33546291 121.53222656 417.13842773 C113.56305197 395.19803035 97.20345607 378.08448149 76.29174805 368.01904297 C74.16897556 367.04417131 72.03440669 366.10621639 69.88769531 365.18530273 C69.1682373 364.87463867 68.4487793 364.56397461 67.70751953 364.24389648 C57.05281129 359.78324351 46.25927213 357.24950259 34.88769531 355.31030273 C33.70288574 355.10703369 32.51807617 354.90376465 31.29736328 354.69433594 C20.72725499 353.03786926 10.74005566 352.72792075 -0.11230469 352.18530273 C-0.11230469 382.87530273 -0.11230469 413.56530273 -0.11230469 445.18530273 C-32.5893802 445.18530273 -32.5893802 445.18530273 -44.36230469 443.49780273 C-45.70943046 443.3148745 -47.05659963 443.13226572 -48.40380859 442.94995117 C-76.30481141 439.08220104 -103.52487702 432.12215031 -129.11230469 420.18530273 C-129.92892578 419.80647949 -130.74554688 419.42765625 -131.58691406 419.03735352 C-162.13728987 404.7073252 -190.3519028 383.96622116 -211.11230469 357.18530273 C-211.5415625 356.63777344 -211.97082031 356.09024414 -212.41308594 355.52612305 C-224.45770957 340.0711701 -232.97082935 323.37569627 -240.11230469 305.18530273 C-240.58410156 304.03030273 -241.05589844 302.87530273 -241.54199219 301.68530273 C-245.38975844 291.74324831 -247.52429172 281.42927129 -249.56005859 270.98852539 C-249.89880956 269.26901231 -250.24981842 267.55179031 -250.62158203 265.83911133 C-262.31269544 211.91460792 -247.80428356 150.96013312 -218.39550781 105.11352539 C-212.32988044 95.99892779 -205.58899433 87.36452255 -198.12792969 79.35327148 C-196.20320857 77.28307726 -194.37482982 75.15577164 -192.54980469 72.99780273 C-189.04391615 68.98879125 -185.1792422 65.6108105 -181.11230469 62.18530273 C-180.19964844 61.37319336 -179.28699219 60.56108398 -178.34667969 59.72436523 C-170.17593519 52.50985565 -161.44522932 46.4159593 -152.26123047 40.55932617 C-150.35430242 39.34003612 -148.46500655 38.09783119 -146.57714844 36.84936523 C-103.46824587 9.0153196 -50.39015942 -0.00379101 0 0 Z " fill="#100F0D" transform="translate(388.1123046875,65.814697265625)"/>
</svg>
